<?xml version="1.0"?><svg width="533.3333333333333" height="533.3333333333333" xmlns="http://www.w3.org/2000/svg">

 <g>
  <title>Layer 1</title>
  <g id="g830">
   <path fill-opacity="0.5" fill-rule="evenodd" stroke-width="2.5" id="path715" d="m128.114792,92.675247l285.912521,1.901917c17.659943,0.117447 47.563873,4.341034 53.925964,27.577423c7.348907,30.557541 9.797699,168.080246 -2.035553,189.240585c-8.723511,17.066742 -16.824188,22.75827 -25.435699,27.576691c-25.510345,11.453705 -144.483643,9.509216 -144.483643,9.509216l-151.604065,79.880768l97.67807,-80.831604l-123.115021,0.000763c-17.275665,0 -33.073685,-10.1539 -38.664146,-32.333252c-9.733696,-40.272278 -11.628464,-153.223083 -2.035057,-179.729828c9.091064,-24.217773 24.369797,-42.962234 49.856628,-42.792679z"/>
   <path fill="#ffffff" fill-rule="evenodd" stroke="#000000" stroke-width="10" stroke-linejoin="round" id="path559" d="m117.13089,83.692749l285.912506,1.901917c17.659973,0.117447 47.563873,4.341019 53.925995,27.577423c7.348907,30.557541 9.797699,168.080261 -2.035583,189.24057c-8.72348,17.066742 -16.824158,22.758301 -25.435669,27.576721c-25.510345,11.453674 -144.483673,9.509186 -144.483673,9.509186l-151.60405,79.880798l97.678085,-80.831635l-123.115036,0.000793c-17.275681,0 -33.073677,-10.153931 -38.664146,-32.333282c-9.733688,-40.272278 -11.628464,-153.223068 -2.035057,-179.729828c9.091072,-24.217758 24.369781,-42.962219 49.856628,-42.792664z"/>
  </g>
 </g>
</svg>